<svg width="195" height="192" xmlns="http://www.w3.org/2000/svg">
 <g>
  <title>background</title>
  <rect fill="none" id="canvas_background" height="194" width="197" y="-1" x="-1"/>
 </g>

 <g>
  <title>Layer 1</title>
  <g id="svg_1">
   <path id="svg_10" fill="#714b67" d="m154.111716,39.41693c-26.40525,-25.69695 -61.52576,-22.56516 -90.602,-2.1944c-0.36349,0.42844 -2.62004,1.63316 -0.10453,-2.11534c55.81924,-63.14552 158.48508,23.07428 101.13626,94.92069c12.83914,-28.53504 16.05641,-64.83347 -10.42816,-90.61035l-0.00157,-0.0006z" clip-rule="evenodd" fill-rule="evenodd"/>
   <path id="svg_11" fill="#714b67" d="m130.515076,9.65429c-90.708,-28.02575 -168.62671,117.19298 -67.59682,182.34571c-113.3758,-50.56677 -57.68594,-204.13623 42.12444,-191.2335c8.14534,1.04344 20.62152,5.03238 25.47185,8.88659l0.00053,0.0012z" clip-rule="evenodd" fill-rule="evenodd"/>
   <path id="svg_13" fill="#714b67" d="m187.323926,66.59162c37.1181,73.79823 -65.91018,168.56066 -137.73436,101.4775c-9.18253,-8.51218 -13.22825,-16.72978 -19.92007,-27.41102c55.84687,79.79576 178.74501,16.75612 156.69634,-72.89144c-0.80419,-3.29307 -0.2847,-3.5871 0.95913,-1.17778l-0.00105,0.00274l0.00001,0z" clip-rule="evenodd" fill-rule="evenodd"/>
  </g>
 </g>
</svg>