<svg class="icon" viewBox="0 0 1024 1024" version="1.1" xmlns="http://www.w3.org/2000/svg" style="height: 220px; width: 220px;"><path d="M512 102.4c226.21696 0 409.6 183.38304 409.6 409.6s-183.38304 409.6-409.6 409.6-409.6-183.38304-409.6-409.6 183.38304-409.6 409.6-409.6z m4.096 114.688h-8.192a36.864 36.864 0 0 0-36.864 36.864v253.952c0 11.27424 5.05856 21.36576 13.0304 28.12416 1.4336 3.93216 3.56352 7.68 6.40512 11.07456l163.23584 194.53952a36.864 36.864 0 0 0 51.93728 4.54144l6.27712-5.26336a36.864 36.864 0 0 0 4.54144-51.93728l-163.23584-194.5344a38.3488 38.3488 0 0 0-0.26624-0.31232L552.96 253.952a36.864 36.864 0 0 0-36.864-36.864z" fill="#8e43e7"></path></svg>