<?xml version="1.0" encoding="UTF-8"?>
<svg width="70px" height="70px" viewBox="0 0 70 70" version="1.1" xmlns="http://www.w3.org/2000/svg" xmlns:xlink="http://www.w3.org/1999/xlink">
    <title>教学</title>
    <defs>
        <linearGradient x1="50%" y1="0.261296453%" x2="50%" y2="100%" id="linearGradient-1">
            <stop stop-color="#A6DFBD" offset="0%"></stop>
            <stop stop-color="#466151" offset="100%"></stop>
        </linearGradient>
        <linearGradient x1="19.3546308%" y1="81.3811814%" x2="96.460772%" y2="9.83341161%" id="linearGradient-2">
            <stop stop-color="#66977A" offset="0%"></stop>
            <stop stop-color="#7ABD96" offset="100%"></stop>
        </linearGradient>
        <rect id="path-3" x="0" y="1" width="70" height="68" rx="3"></rect>
        <filter x="-11.8%" y="-11.4%" width="123.5%" height="122.9%" filterUnits="objectBoundingBox" id="filter-5">
            <feOffset dx="0" dy="2" in="SourceAlpha" result="shadowOffsetOuter1"></feOffset>
            <feColorMatrix values="0 0 0 0 0   0 0 0 0 0   0 0 0 0 0  0 0 0 0.6 0" type="matrix" in="shadowOffsetOuter1" result="shadowMatrixOuter1"></feColorMatrix>
            <feMerge>
                <feMergeNode in="shadowMatrixOuter1"></feMergeNode>
                <feMergeNode in="SourceGraphic"></feMergeNode>
            </feMerge>
        </filter>
    </defs>
    <g id="教学" stroke="none" stroke-width="1" fill="none" fill-rule="evenodd">
        <g>
            <g id="编组-3备份-21">
                <rect id="矩形备份-22" fill="url(#linearGradient-1)" x="0" y="0" width="70" height="70" rx="3"></rect>
                <mask id="mask-4" fill="white">
                    <use xlink:href="#path-3"></use>
                </mask>
                <use id="蒙版" fill="url(#linearGradient-2)" xlink:href="#path-3"></use>
                <g id="路径-3备份-4" mask="url(#mask-4)" fill="#597D68">
                    <g transform="translate(0.000000, 20.000000)" id="路径-3">
                        <polygon points="0 21.3951003 19.0843481 0.724797509 51 0.724797509 51 16.3983769 51 23.2466501 36.955665 50 0 50"></polygon>
                    </g>
                </g>
            </g>
            <g id="编组" filter="url(#filter-5)" transform="translate(18.000000, 19.000000)" fill="#FFFFFF" fill-rule="nonzero">
                <path d="M30.6573281,0.000681431424 L3.29874918,0.000681431424 C2.42650921,0.000681431424 1.58999391,0.347177413 0.973227107,0.963944215 C0.356460304,1.58071102 0.00996432254,2.41722632 0.00996432254,3.28946629 L0.00996432254,22.2698658 C0.00996432254,23.1421058 0.356460304,23.9786211 0.973227107,24.5953879 C1.58999391,25.2121547 2.42650921,25.5586507 3.29874918,25.5586507 L30.6573281,25.5586507 C31.5295681,25.5586507 32.3660834,25.2121547 32.9828502,24.5953879 C33.599617,23.9786211 33.9461773,23.1421058 33.9461773,22.2698658 L33.9461773,3.31002118 C33.9515868,2.43422524 33.6075088,1.59241967 32.9901477,0.971200075 C32.3727866,0.349980483 31.5331411,0.000681431424 30.6573281,0.000681431424 Z M21.8433847,13.4970322 L15.1507076,16.8474818 C14.9046193,16.9699706 14.6126634,16.9563545 14.3790436,16.8114935 C14.1454239,16.6666325 14.0034307,16.411169 14.0037433,16.1362821 L14.0037433,9.44360493 C14.0034307,9.16871803 14.1454239,8.91325452 14.3790436,8.76839352 C14.6126634,8.62353252 14.9046193,8.60991649 15.1507076,8.73240522 L21.8433847,12.0828547 C22.1120138,12.2161118 22.2819321,12.4900785 22.2819321,12.7899435 C22.2819321,13.0898085 22.1120138,13.3637752 21.8433847,13.4970322 L21.8433847,13.4970322 Z" id="形状"></path>
                <path d="M8.63891355,34.1752689 C7.98083105,34.17618 7.36468406,33.8523098 6.99227978,33.3097341 C6.6198755,32.7671583 6.53918584,32.0757697 6.77663915,31.4620195 L11.2740524,19.7251686 C11.5296083,19.0583733 12.1214827,18.5785665 12.8267223,18.4664867 C13.5319619,18.354407 14.243424,18.6270819 14.6931077,19.1817974 C15.1427915,19.736513 15.2623791,20.4889947 15.0068232,21.15579 L10.4847441,32.8926409 C10.1911043,33.6585595 9.45915144,34.167177 8.63891355,34.1752689 L8.63891355,34.1752689 Z M26.2092466,34.175268 C25.3814859,34.1756347 24.6392199,33.6655312 24.3428612,32.8926409 L19.820782,21.15579 C19.4681649,20.1373696 19.9868372,19.0228193 20.9930533,18.6367518 C21.9992694,18.2506843 23.1303454,18.7322551 23.5494419,19.7251686 L28.071521,31.4620195 C28.2614627,31.9569999 28.24688,32.5071792 28.0309842,32.9914028 C27.8150883,33.4756263 27.4155842,33.8541846 26.9204463,34.0437156 C26.6934836,34.1309176 26.4523848,34.1755139 26.2092466,34.175268 L26.2092466,34.175268 Z" id="形状"></path>
            </g>
        </g>
    </g>
</svg>